<?xml version="1.0" encoding="utf-8"?>
<!-- Generator: Adobe Illustrator 16.0.0, SVG Export Plug-In . SVG Version: 6.00 Build 0)  -->
<!DOCTYPE svg PUBLIC "-//W3C//DTD SVG 1.1//EN" "http://www.w3.org/Graphics/SVG/1.1/DTD/svg11.dtd">
<svg version="1.1" id="Layer_1" xmlns="http://www.w3.org/2000/svg" xmlns:xlink="http://www.w3.org/1999/xlink" x="0px" y="0px"
	 width="40px" height="32px" viewBox="0 0 40 32" enable-background="new 0 0 40 32" xml:space="preserve">
<g>
	<g>
		<g>
			<path fill="#FFFFFF" d="M32.094,22c0,3.314-2.686,6-6,6h-12.8c-3.313,0-6-2.686-6-6V10c0-3.314,2.687-6,6-6h12.8
				c3.314,0,6,2.686,6,6V22z M29.694,10c0-1.988-1.612-3.6-3.601-3.6h-12.8c-1.988,0-3.6,1.612-3.6,3.6v12
				c0,1.988,1.612,3.601,3.6,3.601h12.8c1.988,0,3.601-1.612,3.601-3.601V10z"/>
		</g>
	</g>
	<g>
		<g>
			<path fill="#FFFFFF" d="M20.094,22.267c-3.456,0-6.267-2.812-6.267-6.266c0-3.455,2.811-6.267,6.267-6.267
				c3.455,0,6.266,2.812,6.266,6.267C26.36,19.455,23.549,22.267,20.094,22.267z M20.094,12.134c-2.133,0-3.867,1.734-3.867,3.867
				s1.734,3.867,3.867,3.867c2.131,0,3.867-1.734,3.867-3.867S22.226,12.134,20.094,12.134z"/>
		</g>
	</g>
	<g>
		<g>
			<circle fill="#FFFFFF" cx="20.094" cy="16" r="1.517"/>
		</g>
	</g>
</g>
</svg>
