<?xml version="1.0" encoding="utf-8"?>
<!-- Generator: Adobe Illustrator 16.0.0, SVG Export Plug-In . SVG Version: 6.00 Build 0)  -->
<!DOCTYPE svg PUBLIC "-//W3C//DTD SVG 1.1//EN" "http://www.w3.org/Graphics/SVG/1.1/DTD/svg11.dtd">
<svg version="1.1" id="Layer_1" xmlns="http://www.w3.org/2000/svg" xmlns:xlink="http://www.w3.org/1999/xlink" x="0px" y="0px"
	 width="40px" height="32px" viewBox="0 0 40 32" enable-background="new 0 0 40 32" xml:space="preserve">
<g>
	<g>
		<path opacity="0.3" fill-rule="evenodd" clip-rule="evenodd" fill="#FFFFFF" d="M17.735,3.101h-1.472l-1,3.84l-1.028-3.84h-1.541
			c0.309,0.905,0.626,1.828,0.938,2.716c0.465,1.37,0.76,2.387,0.892,3.094v3.961h1.454V8.91L17.735,3.101z M21.639,10.509V7.972
			c0-0.785-0.131-1.347-0.4-1.723c-0.367-0.495-0.886-0.741-1.541-0.741c-0.655,0-1.176,0.246-1.535,0.741
			c-0.283,0.376-0.412,0.938-0.412,1.723v2.537c0,0.778,0.129,1.343,0.412,1.716c0.359,0.496,0.88,0.73,1.535,0.73
			c0.654,0,1.173-0.234,1.541-0.73C21.508,11.852,21.639,11.287,21.639,10.509z M20.327,10.758c0,0.663-0.202,1.007-0.629,1.007
			c-0.435,0-0.625-0.344-0.625-1.007V7.693c0-0.661,0.19-0.999,0.625-0.999c0.427,0,0.629,0.338,0.629,0.999V10.758z M26.518,12.871
			V5.597h-1.326v5.561c-0.293,0.396-0.561,0.607-0.824,0.607c-0.176,0-0.281-0.101-0.311-0.295
			c-0.012-0.053-0.012-0.224-0.012-0.523v-5.35h-1.318v5.735c0,0.52,0.049,0.864,0.117,1.088c0.133,0.37,0.428,0.535,0.848,0.535
			c0.488,0,0.982-0.289,1.5-0.889v0.805H26.518z"/>
		<path fill-rule="evenodd" clip-rule="evenodd" fill="#FFFFFF" d="M17.737,2.947h-1.469l-1,3.841l-1.029-3.841h-1.542
			c0.306,0.904,0.624,1.812,0.936,2.716c0.47,1.37,0.762,2.387,0.898,3.087v3.95h1.449V8.75L17.737,2.947z M21.645,10.358V7.815
			c0-0.782-0.133-1.364-0.4-1.719c-0.371-0.496-0.891-0.752-1.541-0.752c-0.656,0-1.18,0.256-1.539,0.752
			c-0.279,0.354-0.411,0.937-0.411,1.719v2.543c0,0.767,0.132,1.343,0.411,1.701c0.359,0.505,0.883,0.741,1.539,0.741
			c0.649,0,1.169-0.236,1.541-0.741C21.512,11.701,21.645,11.125,21.645,10.358z M20.33,10.604c0,0.663-0.2,1.003-0.626,1.003
			c-0.435,0-0.626-0.34-0.626-1.003V7.543c0-0.665,0.191-1.004,0.626-1.004c0.426,0,0.626,0.339,0.626,1.004V10.604z M26.521,12.7
			v-7.27h-1.326v5.572c-0.295,0.396-0.559,0.604-0.824,0.604c-0.174,0-0.283-0.102-0.313-0.311c-0.01-0.051-0.01-0.211-0.01-0.519
			V5.431h-1.32v5.746c0,0.524,0.049,0.869,0.115,1.089c0.137,0.372,0.434,0.535,0.854,0.535c0.488,0,0.984-0.286,1.498-0.888V12.7
			H26.521z"/>
	</g>
	<g>
		<path fill-rule="evenodd" clip-rule="evenodd" fill="#FFFFFF" d="M30.42,16.437c-0.273-1.146-1.209-2.003-2.328-2.128
			c-2.686-0.294-5.404-0.294-8.084-0.294c-2.694,0-5.416,0-8.083,0.294c-1.126,0.125-2.063,0.982-2.333,2.128
			c-0.365,1.625-0.371,3.406-0.371,5.091c0,1.687,0,3.469,0.368,5.103c0.273,1.145,1.207,1.99,2.333,2.127
			c2.667,0.296,5.384,0.296,8.08,0.296c2.684,0,5.405,0,8.086-0.296c1.117-0.137,2.057-0.982,2.324-2.127
			c0.363-1.634,0.367-3.416,0.367-5.103C30.779,19.843,30.781,18.062,30.42,16.437z M15.368,17.896h-1.562v8.299h-1.445v-8.299
			h-1.536v-1.359h4.543V17.896z M19.301,26.195h-1.3v-0.783c-0.51,0.589-1.008,0.872-1.49,0.872c-0.412,0-0.705-0.169-0.839-0.526
			c-0.067-0.218-0.122-0.567-0.122-1.067v-5.688h1.319v5.292c0,0.305,0,0.468,0.011,0.504c0.025,0.221,0.123,0.307,0.301,0.307
			c0.252,0,0.527-0.199,0.82-0.604v-5.498h1.3V26.195z M24.252,24.035c0,0.675-0.037,1.146-0.127,1.452
			c-0.176,0.544-0.521,0.797-1.033,0.797c-0.465,0-0.912-0.246-1.355-0.792v0.703h-1.292v-9.658h1.292v3.16
			c0.428-0.515,0.871-0.789,1.355-0.789c0.512,0,0.857,0.276,1.033,0.82c0.09,0.284,0.127,0.765,0.127,1.443V24.035z M29.186,22.844
			H26.57v1.269c0,0.666,0.219,0.992,0.664,0.992c0.32,0,0.516-0.171,0.588-0.517c0.004-0.079,0.02-0.359,0.02-0.886h1.344v0.192
			c0,0.425-0.021,0.704-0.033,0.832c-0.051,0.295-0.143,0.55-0.299,0.792c-0.375,0.52-0.896,0.766-1.58,0.766
			c-0.691,0-1.201-0.244-1.584-0.717c-0.271-0.377-0.408-0.931-0.408-1.704v-2.512c0-0.77,0.119-1.339,0.387-1.699
			c0.389-0.499,0.902-0.744,1.566-0.744c0.658,0,1.184,0.245,1.533,0.744c0.285,0.36,0.418,0.93,0.418,1.699V22.844z"/>
		<path fill-rule="evenodd" clip-rule="evenodd" fill="#FFFFFF" d="M22.385,20.088c-0.205,0-0.428,0.104-0.648,0.315v4.39
			c0.221,0.226,0.443,0.312,0.648,0.312c0.383,0,0.572-0.312,0.572-0.966V21.06C22.957,20.431,22.768,20.088,22.385,20.088z"/>
		<path fill-rule="evenodd" clip-rule="evenodd" fill="#FFFFFF" d="M27.221,20.088c-0.432,0-0.65,0.343-0.65,0.994v0.668h1.299
			v-0.668C27.869,20.431,27.658,20.088,27.221,20.088z"/>
	</g>
</g>
</svg>
