<?xml version="1.0" encoding="utf-8"?>
<!-- Generator: Adobe Illustrator 16.0.0, SVG Export Plug-In . SVG Version: 6.00 Build 0)  -->
<!DOCTYPE svg PUBLIC "-//W3C//DTD SVG 1.1//EN" "http://www.w3.org/Graphics/SVG/1.1/DTD/svg11.dtd">
<svg version="1.1" id="Layer_1" xmlns="http://www.w3.org/2000/svg" xmlns:xlink="http://www.w3.org/1999/xlink" x="0px" y="0px"
	 width="40px" height="32px" viewBox="0 0 40 32" enable-background="new 0 0 40 32" xml:space="preserve">
<path fill="#FFFFFF" d="M34.664,6.965c-1.084,0.476-2.238,0.79-3.441,0.944c1.237-0.74,2.183-1.902,2.629-3.303
	c-1.154,0.688-2.43,1.175-3.787,1.447c-1.1-1.167-2.661-1.89-4.366-1.89c-3.308,0-5.971,2.684-5.971,5.976
	c0,0.475,0.04,0.929,0.138,1.362c-4.967-0.243-9.361-2.624-12.313-6.25C7.039,6.146,6.735,7.168,6.735,8.27
	c0,2.069,1.065,3.903,2.655,4.965c-0.96-0.019-1.902-0.297-2.699-0.737c0,0.019,0,0.042,0,0.065c0,2.903,2.07,5.315,4.786,5.869
	c-0.486,0.136-1.017,0.198-1.568,0.198c-0.383,0-0.768-0.021-1.13-0.102c0.775,2.365,2.97,4.104,5.582,4.162
	c-2.033,1.589-4.613,2.547-7.407,2.547c-0.491,0-0.96-0.021-1.43-0.082c2.647,1.706,5.783,2.683,9.166,2.683
	c10.992,0,17.003-9.108,17.003-17c0-0.264-0.009-0.519-0.021-0.771C32.855,9.226,33.852,8.174,34.664,6.965z"/>
</svg>
