<?xml version="1.0" encoding="utf-8"?>
<!-- Generator: Adobe Illustrator 16.0.0, SVG Export Plug-In . SVG Version: 6.00 Build 0)  -->
<!DOCTYPE svg PUBLIC "-//W3C//DTD SVG 1.1//EN" "http://www.w3.org/Graphics/SVG/1.1/DTD/svg11.dtd">
<svg version="1.1" id="Layer_1" xmlns="http://www.w3.org/2000/svg" xmlns:xlink="http://www.w3.org/1999/xlink" x="0px" y="0px"
	 width="40px" height="32px" viewBox="0 0 40 32" enable-background="new 0 0 40 32" xml:space="preserve">
<g>
	<g>
		<path fill="#222221" d="M35,23.5c0,4.143-3.357,7.5-7.5,7.5h-16C7.358,31,4,27.643,4,23.5v-15C4,4.358,7.358,1,11.5,1h16
			C31.643,1,35,4.358,35,8.5V23.5z M32,8.5C32,6.015,29.984,4,27.5,4h-16C9.015,4,7,6.015,7,8.5v15c0,2.484,2.015,4.5,4.5,4.5h16
			c2.484,0,4.5-2.016,4.5-4.5V8.5z"/>
	</g>
</g>
<g>
	<g>
		<path fill="#222221" d="M20,23.833c-4.32,0-7.834-3.515-7.834-7.833c0-4.319,3.514-7.833,7.834-7.833
			c4.318,0,7.833,3.514,7.833,7.833C27.833,20.318,24.318,23.833,20,23.833z M20,11.167c-2.666,0-4.834,2.168-4.834,4.833
			s2.168,4.833,4.834,4.833c2.664,0,4.833-2.168,4.833-4.833S22.664,11.167,20,11.167z"/>
	</g>
</g>
<g>
	<g>
		<circle fill="#222221" cx="27.5" cy="7.937" r="1.896"/>
	</g>
</g>
</svg>
