<?xml version="1.0" encoding="utf-8"?>
<!-- Generator: Adobe Illustrator 16.0.0, SVG Export Plug-In . SVG Version: 6.00 Build 0)  -->
<!DOCTYPE svg PUBLIC "-//W3C//DTD SVG 1.1//EN" "http://www.w3.org/Graphics/SVG/1.1/DTD/svg11.dtd">
<svg version="1.1" id="Layer_1" xmlns="http://www.w3.org/2000/svg" xmlns:xlink="http://www.w3.org/1999/xlink" x="0px" y="0px"
	 width="40px" height="32px" viewBox="0 0 40 32" enable-background="new 0 0 40 32" xml:space="preserve">
<path fill="#222221" d="M38.213,4.706c-1.355,0.595-2.799,0.987-4.303,1.18c1.547-0.925,2.729-2.378,3.287-4.128
	c-1.443,0.859-3.037,1.468-4.734,1.808c-1.374-1.458-3.326-2.363-5.458-2.363c-4.134,0-7.464,3.355-7.464,7.47
	c0,0.593,0.05,1.161,0.173,1.703C13.505,10.072,8.012,7.096,4.322,2.563C3.681,3.682,3.301,4.96,3.301,6.337
	c0,2.587,1.332,4.879,3.318,6.206c-1.2-0.023-2.377-0.371-3.373-0.921c0,0.024,0,0.052,0,0.082c0,3.629,2.588,6.643,5.982,7.336
	c-0.608,0.17-1.271,0.248-1.96,0.248c-0.479,0-0.96-0.027-1.412-0.127c0.968,2.957,3.713,5.131,6.977,5.203
	c-2.541,1.986-5.766,3.184-9.259,3.184c-0.613,0-1.2-0.027-1.787-0.102c3.309,2.131,7.229,3.352,11.457,3.352
	c13.74,0,21.254-11.385,21.254-21.25c0-0.33-0.012-0.648-0.028-0.964C35.951,7.531,37.197,6.217,38.213,4.706z"/>
</svg>
