<?xml version="1.0" encoding="utf-8"?>
<!-- Generator: Adobe Illustrator 16.0.0, SVG Export Plug-In . SVG Version: 6.00 Build 0)  -->
<!DOCTYPE svg PUBLIC "-//W3C//DTD SVG 1.1//EN" "http://www.w3.org/Graphics/SVG/1.1/DTD/svg11.dtd">
<svg version="1.1" id="Layer_1" xmlns="http://www.w3.org/2000/svg" xmlns:xlink="http://www.w3.org/1999/xlink" x="0px" y="0px"
	 width="40px" height="32px" viewBox="0 0 40 32" enable-background="new 0 0 40 32" xml:space="preserve">
<path fill="#FFFFFF" d="M29.231,4.315H11.7c-1.597,0-2.916,1.313-2.916,2.923v17.533c0,1.611,1.319,2.913,2.916,2.913h8.867v-8.38
	h-2.794v-3.642h2.794v-1.831c0-2.822,2.089-5.024,4.75-5.024h2.578v4.117h-2.31c-0.608,0-0.789,0.347-0.789,0.83v1.91h3.099v3.642
	h-3.099v8.383h4.436c1.606,0,2.929-1.305,2.929-2.915V7.238C32.16,5.628,30.836,4.315,29.231,4.315z"/>
</svg>
